<svg id="svg" version="1.1" xmlns="http://www.w3.org/2000/svg" xmlns:xlink="http://www.w3.org/1999/xlink" width="400" height="400" viewBox="0, 0, 400,400"><g id="svgg"><path id="path0" d="M140.900 12.276 C 141.285 12.376,141.915 12.376,142.300 12.276 C 142.685 12.175,142.370 12.093,141.600 12.093 C 140.830 12.093,140.515 12.175,140.900 12.276 M103.900 23.329 C 103.515 23.637,103.200 24.005,103.200 24.148 C 103.200 24.367,98.080 36.016,95.575 41.496 C 95.149 42.428,94.800 43.285,94.800 43.400 C 94.800 43.515,94.422 44.462,93.960 45.504 C 93.131 47.375,92.732 48.337,92.054 50.100 C 91.863 50.595,91.503 51.495,91.254 52.100 C 91.004 52.705,90.644 53.605,90.454 54.100 C 90.263 54.595,89.903 55.495,89.654 56.100 C 89.404 56.705,89.044 57.605,88.854 58.100 C 88.663 58.595,88.321 59.450,88.093 60.000 C 87.865 60.550,87.300 62.035,86.839 63.300 C 86.378 64.565,85.647 66.545,85.216 67.700 C 83.965 71.050,80.218 82.219,78.808 86.800 C 78.097 89.110,77.376 91.450,77.204 92.000 C 77.033 92.550,76.671 93.810,76.401 94.800 C 76.130 95.790,75.763 96.960,75.585 97.400 C 75.406 97.840,75.169 98.650,75.058 99.200 C 74.947 99.750,74.651 100.920,74.401 101.800 C 74.151 102.680,73.771 104.120,73.555 105.000 C 73.340 105.880,72.982 107.320,72.760 108.200 C 72.082 110.887,71.549 113.336,70.367 119.200 C 69.513 123.433,68.744 128.288,67.895 134.800 C 67.212 140.042,67.343 194.037,68.046 197.100 L 68.528 199.200 77.840 199.200 C 83.617 199.200,87.247 199.352,87.400 199.600 C 87.564 199.865,116.004 200.000,171.424 200.000 L 255.200 200.000 255.200 188.424 C 255.200 181.137,255.348 176.756,255.600 176.600 C 255.852 176.444,256.000 172.081,256.000 164.831 L 256.000 153.309 257.015 152.294 C 258.322 150.987,259.642 150.673,261.609 151.202 C 264.324 151.934,264.991 152.904,268.199 160.800 C 269.852 164.870,271.360 168.560,271.549 169.000 C 271.738 169.440,272.074 170.250,272.296 170.800 C 272.517 171.350,273.069 172.610,273.522 173.600 C 273.975 174.590,274.574 176.120,274.854 177.000 C 275.134 177.880,275.507 178.771,275.682 178.980 C 275.857 179.189,276.000 179.774,276.000 180.280 C 276.000 180.786,276.180 181.200,276.400 181.200 C 276.620 181.200,276.800 181.562,276.800 182.005 C 276.800 182.448,276.958 183.123,277.150 183.505 C 277.343 183.887,278.274 185.730,279.220 187.600 C 280.165 189.470,281.133 191.404,281.369 191.897 C 281.606 192.390,281.935 192.795,282.100 192.797 C 282.265 192.799,282.400 193.160,282.400 193.600 C 282.400 194.040,282.580 194.400,282.800 194.400 C 283.020 194.400,283.200 194.655,283.200 194.967 C 283.200 195.278,283.335 195.593,283.500 195.667 C 283.665 195.740,284.244 196.676,284.786 197.746 C 286.057 200.253,283.616 200.023,307.684 199.904 L 328.767 199.800 327.184 197.071 C 326.313 195.569,325.600 194.099,325.600 193.804 C 325.600 193.508,325.465 193.207,325.300 193.133 C 324.924 192.966,323.625 190.836,323.329 189.900 C 323.207 189.515,322.948 189.200,322.753 189.200 C 322.559 189.200,322.400 188.855,322.400 188.433 C 322.400 188.012,322.256 187.607,322.080 187.533 C 321.703 187.376,316.155 176.155,314.597 172.400 C 314.004 170.970,313.087 168.850,312.559 167.688 C 312.032 166.527,311.600 165.490,311.600 165.384 C 311.600 165.278,311.222 164.338,310.760 163.296 C 310.298 162.253,309.758 160.995,309.560 160.500 C 309.362 160.005,308.996 159.105,308.746 158.500 C 308.497 157.895,308.137 156.995,307.946 156.500 C 307.756 156.005,307.444 155.195,307.254 154.700 C 306.793 153.503,306.213 152.103,305.474 150.400 C 305.139 149.630,304.148 147.200,303.272 145.000 C 297.265 129.923,290.790 116.263,284.027 104.400 C 282.836 102.310,281.352 99.848,280.731 98.928 C 280.109 98.008,279.600 97.143,279.600 97.006 C 279.600 96.689,276.646 92.304,275.027 90.218 C 273.206 87.871,271.874 86.594,266.800 82.329 C 257.034 74.122,247.010 62.348,243.193 54.600 C 242.867 53.940,242.503 53.310,242.383 53.200 C 240.613 51.577,234.927 36.757,233.405 29.800 C 232.458 25.469,232.096 24.581,231.074 24.073 C 230.480 23.779,220.076 23.570,198.600 23.421 C 181.220 23.301,152.960 23.105,135.800 22.986 C 109.450 22.804,104.491 22.857,103.900 23.329 M265.450 350.050 C 265.077 351.916,265.148 353.600,265.600 353.600 C 265.822 353.600,266.000 352.533,266.000 351.200 C 266.000 348.533,265.826 348.170,265.450 350.050 " stroke="none" fill="#fcc926" fill-rule="evenodd"></path><path id="path1" d="M102.324 12.544 C 102.059 12.827,101.420 12.978,100.905 12.880 C 100.257 12.756,100.003 12.870,100.083 13.250 C 100.154 13.582,99.923 13.753,99.500 13.682 C 99.115 13.618,98.800 13.757,98.800 13.991 C 98.800 14.225,98.305 14.636,97.700 14.904 C 96.513 15.429,95.336 16.396,95.871 16.406 C 96.052 16.409,96.011 16.544,95.781 16.706 C 95.132 17.161,93.507 19.600,93.853 19.600 C 94.022 19.600,93.944 19.816,93.680 20.080 C 93.416 20.344,93.200 20.895,93.200 21.304 C 93.200 21.764,93.024 21.938,92.738 21.762 C 92.470 21.596,92.384 21.651,92.533 21.892 C 92.675 22.121,92.073 23.704,91.195 25.409 C 90.318 27.115,89.600 28.946,89.600 29.479 C 89.600 30.023,89.425 30.339,89.200 30.200 C 88.980 30.064,88.800 30.323,88.800 30.776 C 88.800 31.229,88.620 31.600,88.400 31.600 C 88.180 31.600,88.000 31.960,88.000 32.400 C 88.000 32.840,87.820 33.200,87.600 33.200 C 87.380 33.200,87.200 33.661,87.200 34.224 C 87.200 34.787,87.065 35.164,86.900 35.062 C 86.735 34.960,86.572 35.349,86.537 35.926 C 86.502 36.503,86.277 37.041,86.037 37.121 C 85.797 37.201,85.600 37.524,85.600 37.839 C 85.600 38.367,84.866 39.934,84.400 40.400 C 84.290 40.510,84.151 41.042,84.090 41.583 C 84.030 42.123,83.809 42.671,83.600 42.800 C 83.391 42.929,83.144 43.387,83.051 43.817 C 82.691 45.480,82.292 46.400,81.930 46.400 C 81.722 46.400,81.655 46.565,81.780 46.768 C 81.905 46.970,81.736 47.407,81.404 47.739 C 80.743 48.400,80.585 48.980,81.163 48.623 C 81.362 48.500,81.317 48.848,81.063 49.396 C 80.808 49.945,80.490 50.395,80.355 50.397 C 80.220 50.399,80.160 50.851,80.220 51.402 C 80.280 51.953,80.164 52.301,79.960 52.175 C 79.757 52.050,79.480 52.499,79.345 53.173 C 79.210 53.848,78.898 54.403,78.650 54.406 C 78.403 54.409,78.470 54.587,78.800 54.800 C 79.200 55.058,79.233 55.190,78.900 55.194 C 78.625 55.197,78.400 55.560,78.400 56.000 C 78.400 56.440,78.220 56.800,78.000 56.800 C 77.780 56.800,77.600 57.160,77.600 57.600 C 77.600 58.040,77.409 58.400,77.176 58.400 C 76.943 58.400,76.856 58.568,76.983 58.773 C 77.181 59.093,76.670 60.599,75.615 62.800 C 75.457 63.130,75.358 63.805,75.397 64.300 C 75.435 64.795,75.316 65.200,75.133 65.200 C 74.950 65.200,74.800 65.560,74.800 66.000 C 74.800 66.440,74.620 66.800,74.400 66.800 C 74.180 66.800,74.000 67.340,74.000 68.000 C 74.000 68.660,73.820 69.200,73.600 69.200 C 73.380 69.200,73.200 69.740,73.200 70.400 C 73.200 71.060,73.020 71.600,72.800 71.600 C 72.580 71.600,72.400 72.140,72.400 72.800 C 72.400 73.460,72.220 74.000,72.000 74.000 C 71.780 74.000,71.600 74.529,71.600 75.176 C 71.600 75.823,71.420 76.464,71.200 76.600 C 70.980 76.736,70.800 77.287,70.800 77.824 C 70.800 78.361,70.620 78.800,70.400 78.800 C 70.180 78.800,70.000 79.073,70.000 79.406 C 70.000 80.376,69.034 83.200,68.703 83.200 C 68.536 83.200,68.400 83.920,68.400 84.800 C 68.400 85.680,68.220 86.400,68.000 86.400 C 67.780 86.400,67.600 86.760,67.600 87.200 C 67.600 87.640,67.457 88.000,67.282 88.000 C 67.107 88.000,66.919 88.675,66.864 89.500 C 66.810 90.325,66.593 91.060,66.382 91.133 C 66.172 91.207,66.000 91.792,66.000 92.433 C 66.000 93.075,65.820 93.600,65.600 93.600 C 65.380 93.600,65.200 94.331,65.200 95.224 C 65.200 96.230,65.044 96.751,64.790 96.594 C 64.565 96.455,64.406 96.489,64.437 96.670 C 64.619 97.715,64.348 100.015,64.064 99.840 C 63.880 99.726,63.704 100.287,63.674 101.087 C 63.644 101.887,63.471 102.644,63.290 102.771 C 63.110 102.897,62.920 103.623,62.868 104.384 C 62.817 105.146,62.639 105.866,62.473 105.984 C 62.307 106.103,62.115 106.920,62.046 107.800 C 61.978 108.680,61.787 109.490,61.621 109.600 C 61.456 109.710,61.324 110.401,61.327 111.135 C 61.331 111.870,61.134 112.593,60.891 112.744 C 60.647 112.894,60.431 113.553,60.410 114.209 C 60.341 116.382,60.231 117.143,60.006 117.004 C 59.884 116.928,59.765 117.662,59.741 118.633 C 59.718 119.605,59.535 120.625,59.335 120.900 C 59.135 121.175,59.001 122.210,59.036 123.200 C 59.072 124.190,58.899 125.253,58.651 125.561 C 58.403 125.870,58.245 126.185,58.300 126.261 C 58.572 126.638,58.355 131.220,58.074 131.046 C 57.894 130.935,57.702 132.589,57.647 134.722 C 57.591 136.855,57.372 138.662,57.159 138.738 C 56.657 138.917,56.719 195.505,57.221 195.677 C 57.419 195.745,57.597 199.570,57.618 204.178 C 57.638 208.786,57.818 212.860,58.017 213.232 C 58.216 213.604,58.401 216.089,58.427 218.754 C 58.453 221.419,58.627 223.693,58.814 223.809 C 59.000 223.924,59.102 225.319,59.040 226.909 C 58.976 228.574,59.140 230.309,59.427 231.000 C 59.701 231.660,59.879 232.881,59.823 233.714 C 59.767 234.546,59.874 235.322,60.060 235.437 C 60.247 235.553,60.400 236.267,60.400 237.024 C 60.400 237.781,60.562 238.400,60.760 238.400 C 60.958 238.400,61.336 239.300,61.600 240.400 C 61.864 241.500,62.220 242.400,62.391 242.400 C 62.715 242.400,63.734 244.577,63.615 245.013 C 63.578 245.149,63.908 245.573,64.349 245.956 C 64.790 246.338,65.206 246.897,65.275 247.198 C 65.421 247.839,70.771 253.200,71.265 253.200 C 71.449 253.200,71.600 253.451,71.600 253.757 C 71.600 254.064,71.870 254.418,72.200 254.545 C 72.530 254.671,72.800 254.560,72.800 254.298 C 72.800 254.036,73.081 254.223,73.424 254.713 C 73.768 255.203,74.614 255.897,75.305 256.254 C 75.996 256.611,76.808 257.150,77.109 257.452 C 77.410 257.753,78.004 258.022,78.429 258.050 C 79.703 258.133,79.920 258.187,80.233 258.500 C 80.398 258.665,81.043 258.800,81.667 258.800 C 82.290 258.800,82.800 258.980,82.800 259.200 C 82.800 259.420,83.351 259.600,84.024 259.600 C 84.737 259.600,85.144 259.767,85.000 260.000 C 84.839 260.261,87.121 260.400,91.553 260.400 C 95.655 260.400,98.451 260.241,98.600 260.000 C 99.165 259.085,104.386 259.896,104.397 260.900 C 104.399 261.065,104.760 261.200,105.200 261.200 C 105.640 261.200,106.000 261.350,106.000 261.532 C 106.000 261.715,106.484 262.120,107.075 262.432 C 108.222 263.038,110.153 264.796,109.682 264.806 C 109.527 264.809,109.850 265.044,110.400 265.328 C 110.983 265.629,111.351 266.127,111.282 266.522 C 111.215 266.912,111.422 267.200,111.770 267.200 C 112.175 267.200,112.292 267.431,112.124 267.900 C 111.986 268.285,112.023 268.464,112.206 268.297 C 112.390 268.130,112.846 268.460,113.220 269.030 C 113.593 269.600,114.012 270.051,114.150 270.033 C 114.287 270.015,114.435 270.135,114.478 270.300 C 114.623 270.860,115.399 271.517,115.700 271.334 C 115.865 271.235,116.000 271.433,116.000 271.776 C 116.000 272.119,116.287 272.400,116.637 272.400 C 116.988 272.400,117.369 272.758,117.483 273.196 C 117.597 273.633,117.850 273.892,118.045 273.772 C 118.240 273.651,118.400 273.743,118.400 273.976 C 118.400 274.209,118.771 274.400,119.224 274.400 C 119.677 274.400,119.936 274.580,119.800 274.800 C 119.664 275.020,119.832 275.200,120.173 275.200 C 120.514 275.200,121.018 275.560,121.293 276.000 C 121.568 276.440,122.109 276.800,122.496 276.800 C 122.883 276.800,123.200 276.980,123.200 277.200 C 123.200 277.420,123.560 277.600,124.000 277.600 C 124.440 277.600,124.801 277.735,124.803 277.900 C 124.807 278.265,126.749 279.200,127.503 279.200 C 127.802 279.200,127.936 279.380,127.800 279.600 C 127.656 279.833,128.063 280.000,128.776 280.000 C 129.449 280.000,130.000 280.160,130.000 280.356 C 130.000 280.693,130.867 280.896,134.594 281.430 C 135.471 281.556,136.374 281.813,136.601 282.000 C 137.172 282.475,148.000 282.454,148.000 281.979 C 148.000 281.771,148.414 281.600,148.920 281.600 C 149.426 281.600,150.011 281.429,150.220 281.220 C 150.430 281.010,151.681 280.806,153.000 280.766 C 157.759 280.620,159.019 280.772,159.908 281.600 C 160.380 282.040,161.034 282.400,161.361 282.400 C 161.687 282.400,162.235 282.800,162.577 283.289 C 162.920 283.778,163.200 284.057,163.200 283.908 C 163.200 283.580,165.040 285.250,165.251 285.769 C 165.537 286.476,167.873 288.680,169.110 289.411 C 169.796 289.815,170.266 290.294,170.155 290.473 C 170.044 290.653,170.257 290.800,170.629 290.800 C 171.002 290.800,171.597 291.115,171.953 291.500 C 172.309 291.885,172.870 292.259,173.200 292.330 C 173.530 292.402,173.860 292.627,173.933 292.830 C 174.007 293.034,174.372 293.200,174.745 293.200 C 175.118 293.200,175.676 293.550,175.985 293.979 C 176.293 294.407,176.662 294.685,176.803 294.598 C 176.945 294.510,177.933 294.880,178.998 295.419 C 180.064 295.959,181.445 296.400,182.068 296.400 C 182.691 296.400,183.200 296.580,183.200 296.800 C 183.200 297.020,183.999 297.200,184.976 297.200 C 185.953 297.200,186.857 297.368,186.984 297.574 C 187.282 298.057,198.508 298.073,198.806 297.591 C 198.930 297.390,200.053 297.192,201.301 297.152 C 202.550 297.111,203.477 296.925,203.362 296.739 C 203.247 296.552,203.688 296.400,204.343 296.400 C 204.998 296.400,205.624 296.175,205.735 295.900 C 205.846 295.625,205.951 309.924,205.968 327.676 C 205.989 348.728,206.139 360.039,206.400 360.200 C 206.620 360.336,206.800 361.347,206.800 362.447 C 206.800 363.679,206.954 364.352,207.200 364.200 C 207.433 364.056,207.600 364.455,207.600 365.153 C 207.600 365.813,207.780 366.464,208.000 366.600 C 208.220 366.736,208.400 367.197,208.400 367.624 C 208.400 368.051,208.580 368.400,208.800 368.400 C 209.020 368.400,209.179 368.535,209.153 368.700 C 209.127 368.865,209.149 369.135,209.203 369.300 C 209.395 369.893,209.501 370.410,209.550 371.000 C 209.578 371.330,209.817 371.555,210.081 371.500 C 210.346 371.445,210.590 371.670,210.624 372.000 C 210.744 373.182,211.297 374.387,211.625 374.184 C 211.809 374.071,212.177 374.388,212.443 374.889 C 212.708 375.390,213.285 376.115,213.724 376.500 C 214.287 376.994,214.357 377.204,213.961 377.214 C 213.614 377.223,213.713 377.413,214.223 377.714 C 215.048 378.201,215.462 378.555,218.133 381.053 C 218.925 381.794,219.834 382.400,220.153 382.400 C 220.472 382.400,220.793 382.550,220.867 382.733 C 221.056 383.205,225.532 385.600,226.225 385.600 C 226.541 385.600,226.800 385.800,226.800 386.045 C 226.800 386.311,227.277 386.421,227.985 386.317 C 228.732 386.207,229.244 386.338,229.372 386.672 C 229.502 387.009,230.277 387.200,231.521 387.200 C 232.591 387.200,233.602 387.335,233.767 387.500 C 234.163 387.897,243.200 387.985,243.200 387.592 C 243.200 387.425,243.785 387.186,244.500 387.063 C 247.512 386.542,248.400 386.290,248.400 385.955 C 248.400 385.760,248.773 385.600,249.229 385.600 C 249.684 385.600,250.329 385.328,250.661 384.996 C 250.993 384.664,251.430 384.495,251.632 384.620 C 251.835 384.745,252.000 384.657,252.000 384.424 C 252.000 384.191,252.281 384.000,252.624 384.000 C 252.967 384.000,253.136 383.820,253.000 383.600 C 252.864 383.380,253.046 383.200,253.405 383.200 C 253.764 383.200,254.327 382.930,254.657 382.600 C 254.987 382.270,255.141 382.000,255.000 382.000 C 254.859 382.000,255.013 381.730,255.343 381.400 C 255.673 381.070,256.136 380.800,256.371 380.800 C 256.607 380.800,256.800 380.628,256.800 380.418 C 256.800 380.208,257.250 379.586,257.800 379.036 C 258.350 378.486,258.800 377.841,258.800 377.601 C 258.800 377.362,259.160 376.780,259.600 376.308 C 260.040 375.836,260.400 375.213,260.400 374.925 C 260.400 374.636,260.580 374.400,260.800 374.400 C 261.020 374.400,261.200 374.106,261.200 373.747 C 261.200 373.388,261.515 372.803,261.900 372.447 C 262.285 372.091,262.662 371.350,262.738 370.800 C 262.814 370.250,263.039 369.740,263.238 369.667 C 263.437 369.593,263.600 368.998,263.600 368.343 C 263.600 367.688,263.762 367.253,263.960 367.375 C 264.444 367.674,264.821 364.794,265.056 359.008 C 265.180 355.940,265.421 354.108,265.725 353.914 C 266.081 353.688,266.071 353.611,265.687 353.606 C 265.308 353.602,265.203 352.875,265.286 350.837 C 265.348 349.317,265.531 348.282,265.693 348.537 C 265.855 348.792,265.965 347.830,265.937 346.400 C 265.891 344.056,265.858 343.957,265.600 345.400 L 265.314 347.000 265.257 345.567 C 265.226 344.778,265.296 344.038,265.413 343.920 C 265.802 343.531,266.028 336.000,265.651 336.000 C 265.440 336.000,265.416 335.416,265.595 334.623 C 265.834 333.564,266.058 255.725,266.005 191.900 C 266.002 187.729,266.143 185.600,266.424 185.600 C 266.657 185.600,266.745 185.765,266.620 185.968 C 266.495 186.170,266.677 186.620,267.025 186.968 C 267.498 187.441,267.524 187.602,267.129 187.606 C 266.757 187.610,266.735 187.700,267.055 187.906 C 267.671 188.305,269.706 191.998,269.313 192.006 C 269.141 192.009,269.180 192.144,269.400 192.306 C 269.988 192.738,270.800 194.297,270.800 194.995 C 270.800 195.328,270.980 195.600,271.200 195.600 C 271.420 195.600,271.600 195.960,271.600 196.400 C 271.600 196.840,271.736 197.200,271.902 197.200 C 272.217 197.200,273.190 199.153,273.163 199.730 C 273.154 199.912,273.547 200.407,274.035 200.830 C 274.627 201.344,274.736 201.605,274.361 201.614 C 274.049 201.622,274.202 201.851,274.704 202.130 C 275.326 202.476,275.479 202.761,275.194 203.046 C 274.910 203.330,275.034 203.687,275.591 204.191 C 276.036 204.594,276.400 205.166,276.400 205.462 C 276.400 205.758,276.580 206.000,276.800 206.000 C 277.020 206.000,277.162 206.135,277.115 206.300 C 277.068 206.465,277.255 207.005,277.529 207.500 C 277.804 207.995,277.904 208.400,277.753 208.400 C 277.601 208.400,277.865 208.736,278.339 209.147 C 278.812 209.558,279.200 210.188,279.200 210.547 C 279.200 210.906,279.380 211.200,279.600 211.200 C 279.820 211.200,280.000 211.571,280.000 212.024 C 280.000 212.477,280.180 212.736,280.400 212.600 C 280.620 212.464,280.800 212.633,280.800 212.976 C 280.800 213.319,281.054 213.600,281.365 213.600 C 281.676 213.600,281.882 213.914,281.824 214.300 C 281.767 214.685,282.053 215.235,282.460 215.523 C 282.867 215.810,283.200 216.305,283.200 216.623 C 283.200 216.940,283.380 217.200,283.600 217.200 C 283.820 217.200,284.000 217.388,284.000 217.617 C 284.000 218.034,284.384 218.579,285.700 220.029 C 286.085 220.453,286.400 220.898,286.400 221.017 C 286.400 221.136,286.760 221.620,287.200 222.092 C 287.640 222.564,288.000 223.217,288.000 223.542 C 288.000 223.867,288.103 224.031,288.228 223.905 C 288.492 223.641,291.200 226.029,291.200 226.526 C 291.200 226.708,291.470 227.127,291.800 227.457 C 292.130 227.787,292.400 227.949,292.400 227.816 C 292.400 227.684,292.994 228.166,293.719 228.888 C 294.445 229.609,294.994 230.302,294.941 230.427 C 294.887 230.552,295.223 230.912,295.687 231.227 C 296.152 231.542,296.862 232.115,297.266 232.500 C 297.670 232.885,298.140 233.200,298.312 233.200 C 298.483 233.200,298.883 233.560,299.200 234.000 C 299.517 234.440,300.127 234.800,300.555 234.800 C 300.983 234.800,301.217 234.916,301.075 235.059 C 300.773 235.360,304.581 237.200,305.506 237.200 C 305.851 237.200,306.006 237.327,305.851 237.482 C 305.696 237.637,306.700 237.995,308.083 238.277 C 309.465 238.559,310.867 238.906,311.198 239.048 C 312.189 239.473,320.762 239.585,321.015 239.176 C 321.143 238.969,321.732 238.798,322.324 238.796 C 322.916 238.793,324.210 238.549,325.200 238.254 C 326.190 237.958,327.250 237.803,327.556 237.910 C 327.895 238.028,328.002 237.927,327.832 237.652 C 327.591 237.262,328.301 237.080,329.455 237.234 C 329.596 237.253,329.821 237.118,329.955 236.934 C 330.287 236.481,331.895 235.600,332.390 235.600 C 332.822 235.600,334.041 234.672,335.249 233.425 C 335.662 232.998,336.007 232.818,336.016 233.025 C 336.025 233.231,336.301 232.905,336.629 232.300 C 336.957 231.695,337.400 231.200,337.613 231.200 C 337.826 231.200,338.000 230.930,338.000 230.600 C 338.000 230.270,338.191 230.000,338.424 230.000 C 338.657 230.000,338.736 229.820,338.600 229.600 C 338.464 229.380,338.633 229.200,338.976 229.200 C 339.333 229.200,339.600 228.858,339.600 228.400 C 339.600 227.960,339.791 227.600,340.024 227.600 C 340.257 227.600,340.336 227.420,340.200 227.200 C 340.064 226.980,340.154 226.800,340.400 226.800 C 340.646 226.800,340.744 226.632,340.617 226.428 C 340.491 226.223,340.573 225.940,340.800 225.800 C 341.027 225.660,341.117 225.390,341.000 225.200 C 340.883 225.010,340.970 224.742,341.193 224.604 C 341.417 224.466,341.600 223.813,341.600 223.153 C 341.600 222.455,341.767 222.056,342.000 222.200 C 342.241 222.349,342.400 221.812,342.400 220.847 C 342.400 219.967,342.580 219.136,342.800 219.000 C 343.340 218.666,343.340 206.000,342.800 206.000 C 342.580 206.000,342.400 205.100,342.400 204.000 C 342.400 202.900,342.220 202.000,342.000 202.000 C 341.780 202.000,341.600 201.561,341.600 201.024 C 341.600 200.487,341.443 199.950,341.250 199.831 C 341.058 199.712,340.900 199.150,340.900 198.581 C 340.900 198.002,340.395 196.995,339.750 196.289 C 339.118 195.597,338.960 195.291,339.400 195.608 C 340.177 196.169,340.180 196.162,339.500 195.362 C 339.115 194.908,338.800 194.326,338.800 194.069 C 338.800 193.811,338.575 193.645,338.300 193.700 C 338.025 193.755,337.845 193.575,337.900 193.300 C 337.955 193.025,337.820 192.800,337.600 192.800 C 337.380 192.800,337.200 192.440,337.200 192.000 C 337.200 191.560,337.020 191.200,336.800 191.200 C 336.580 191.200,336.400 190.930,336.400 190.600 C 336.400 190.270,336.220 190.000,336.000 190.000 C 335.780 190.000,335.600 189.807,335.600 189.571 C 335.600 189.336,335.328 188.871,334.996 188.539 C 334.664 188.207,334.512 187.742,334.658 187.506 C 334.815 187.251,334.736 187.193,334.462 187.362 C 334.188 187.531,334.000 187.393,334.000 187.024 C 334.000 186.681,333.865 186.399,333.700 186.397 C 333.335 186.393,332.400 184.451,332.400 183.697 C 332.400 183.398,332.220 183.264,332.000 183.400 C 331.772 183.541,331.600 183.196,331.600 182.600 C 331.600 182.004,331.428 181.659,331.200 181.800 C 330.980 181.936,330.800 181.677,330.800 181.224 C 330.800 180.771,330.663 180.400,330.496 180.400 C 330.329 180.400,329.956 180.021,329.667 179.558 C 329.378 179.095,329.334 178.836,329.570 178.982 C 329.807 179.128,330.000 179.057,330.000 178.824 C 330.000 178.591,329.842 178.400,329.649 178.400 C 329.455 178.400,329.073 177.860,328.800 177.200 C 328.527 176.540,328.145 176.000,327.951 176.000 C 327.758 176.000,327.600 175.550,327.600 175.000 C 327.600 174.450,327.420 174.000,327.200 174.000 C 326.980 174.000,326.800 173.640,326.800 173.200 C 326.800 172.760,326.620 172.400,326.400 172.400 C 326.180 172.400,326.000 172.040,326.000 171.600 C 326.000 171.160,325.820 170.800,325.600 170.800 C 325.380 170.800,325.200 170.451,325.200 170.024 C 325.200 169.597,325.017 169.134,324.793 168.996 C 324.570 168.858,324.479 168.596,324.591 168.414 C 324.704 168.233,324.518 167.977,324.179 167.847 C 323.840 167.717,323.592 167.383,323.629 167.105 C 323.777 165.974,323.577 165.167,323.205 165.397 C 322.980 165.536,322.910 165.380,323.042 165.035 C 323.170 164.701,322.898 163.899,322.437 163.252 C 321.977 162.606,321.600 161.862,321.600 161.600 C 321.600 161.338,321.205 160.568,320.721 159.890 C 320.216 159.179,320.088 158.796,320.421 158.986 C 320.891 159.255,320.906 159.216,320.500 158.779 C 320.225 158.482,320.000 157.916,320.000 157.520 C 320.000 157.124,319.820 156.800,319.600 156.800 C 319.380 156.800,319.200 156.275,319.200 155.633 C 319.200 154.992,319.065 154.407,318.900 154.333 C 318.484 154.148,316.859 150.775,316.717 149.800 C 316.653 149.360,316.456 148.894,316.280 148.764 C 316.104 148.634,315.931 148.139,315.895 147.664 C 315.859 147.189,315.688 146.800,315.515 146.800 C 315.342 146.800,315.200 146.530,315.200 146.200 C 315.200 145.870,314.975 145.597,314.700 145.594 C 314.367 145.590,314.400 145.458,314.800 145.200 C 315.200 144.942,315.233 144.810,314.900 144.806 C 314.625 144.803,314.400 144.530,314.400 144.200 C 314.400 143.870,314.220 143.600,314.000 143.600 C 313.780 143.600,313.600 143.240,313.600 142.800 C 313.600 142.360,313.420 142.000,313.200 142.000 C 312.980 142.000,312.800 141.460,312.800 140.800 C 312.800 140.140,312.620 139.600,312.400 139.600 C 312.180 139.600,312.000 139.227,312.000 138.771 C 312.000 138.316,311.728 137.671,311.396 137.339 C 311.064 137.007,310.907 136.550,311.048 136.323 C 311.188 136.096,311.144 135.796,310.951 135.655 C 310.287 135.173,309.600 133.609,309.600 132.582 C 309.600 132.016,309.456 131.642,309.280 131.751 C 309.104 131.860,308.724 131.150,308.436 130.174 C 308.147 129.198,307.732 128.400,307.513 128.400 C 307.294 128.400,307.213 128.143,307.333 127.829 C 307.572 127.208,306.785 125.208,306.300 125.203 C 306.135 125.201,306.000 124.750,306.000 124.200 C 306.000 123.650,305.862 123.200,305.694 123.200 C 305.367 123.200,304.000 120.274,304.000 119.574 C 304.000 119.342,303.840 119.252,303.645 119.372 C 303.449 119.493,303.168 118.780,303.019 117.788 C 302.870 116.796,302.580 116.089,302.374 116.216 C 302.168 116.343,302.000 116.064,302.000 115.595 C 302.000 114.609,301.053 113.506,300.561 113.919 C 300.377 114.074,300.490 113.850,300.813 113.423 C 301.136 112.996,301.210 112.760,300.979 112.898 C 300.741 113.040,300.218 112.378,299.779 111.379 C 299.350 110.405,298.854 109.606,298.676 109.604 C 298.498 109.602,298.464 109.420,298.600 109.200 C 298.736 108.980,298.685 108.800,298.488 108.800 C 298.290 108.800,297.882 108.035,297.581 107.100 C 297.280 106.165,296.711 105.109,296.317 104.753 C 295.923 104.397,295.600 103.812,295.600 103.453 C 295.600 103.094,295.465 102.799,295.300 102.797 C 294.920 102.793,294.002 100.842,293.994 100.020 C 293.989 99.529,293.918 99.511,293.650 99.932 C 293.410 100.311,293.245 100.123,293.076 99.280 C 292.946 98.629,292.605 97.849,292.320 97.547 C 291.066 96.221,290.561 95.425,291.200 95.782 C 291.530 95.967,291.391 95.720,290.891 95.235 C 290.391 94.750,290.073 94.206,290.184 94.026 C 290.294 93.847,289.957 93.239,289.434 92.675 C 288.912 92.111,288.585 91.548,288.709 91.425 C 288.832 91.301,288.723 91.200,288.467 91.200 C 288.210 91.200,288.000 90.964,288.000 90.675 C 288.000 90.387,287.633 89.757,287.184 89.275 C 286.736 88.794,286.479 88.400,286.613 88.400 C 286.747 88.400,286.574 88.117,286.229 87.771 C 285.883 87.426,285.600 86.796,285.600 86.371 C 285.600 85.945,285.326 85.600,284.987 85.600 C 284.651 85.600,284.258 85.296,284.116 84.925 C 283.973 84.553,283.169 83.519,282.328 82.627 C 281.488 81.734,280.800 80.759,280.800 80.459 C 280.800 80.123,280.554 80.009,280.155 80.162 C 279.734 80.323,279.578 80.234,279.705 79.902 C 279.812 79.624,279.652 79.165,279.350 78.882 C 279.047 78.600,278.799 78.511,278.797 78.684 C 278.796 78.858,278.467 78.504,278.067 77.897 C 277.667 77.290,277.218 76.915,277.070 77.063 C 276.921 77.212,276.800 77.113,276.800 76.843 C 276.800 76.573,276.647 76.447,276.460 76.563 C 276.273 76.678,275.735 76.329,275.263 75.786 C 274.791 75.244,274.213 74.800,273.979 74.800 C 273.745 74.800,273.664 74.620,273.800 74.400 C 273.936 74.180,273.736 74.000,273.356 74.000 C 272.680 74.000,260.800 62.323,260.800 61.658 C 260.800 61.097,259.337 59.597,259.059 59.874 C 258.833 60.101,258.793 59.966,258.802 58.998 C 258.803 58.887,258.258 58.226,257.592 57.529 C 256.926 56.831,256.278 55.855,256.154 55.359 C 256.030 54.864,255.677 54.362,255.371 54.244 C 255.055 54.123,254.918 53.757,255.056 53.399 C 255.189 53.051,255.141 52.820,254.949 52.884 C 254.757 52.948,254.559 52.862,254.508 52.692 C 254.458 52.523,254.053 51.994,253.608 51.517 C 253.164 51.040,252.800 50.222,252.800 49.701 C 252.800 49.179,252.649 48.846,252.465 48.960 C 252.092 49.190,250.400 46.243,250.400 45.362 C 250.400 45.053,250.220 44.800,250.000 44.800 C 249.780 44.800,249.600 44.530,249.600 44.200 C 249.600 43.870,249.420 43.600,249.200 43.600 C 248.980 43.600,248.800 43.060,248.800 42.400 C 248.800 41.740,248.620 41.200,248.400 41.200 C 248.180 41.200,248.000 40.829,248.000 40.376 C 248.000 39.923,247.820 39.664,247.600 39.800 C 247.380 39.936,247.200 39.713,247.200 39.304 C 247.200 38.895,247.021 38.381,246.802 38.162 C 246.584 37.944,246.364 37.278,246.315 36.682 C 246.266 36.087,246.085 35.600,245.913 35.600 C 245.741 35.600,245.600 35.075,245.600 34.433 C 245.600 33.792,245.397 33.199,245.150 33.117 C 244.903 33.034,244.700 32.476,244.700 31.876 C 244.700 31.276,244.543 30.688,244.350 30.569 C 244.157 30.450,244.000 29.834,244.000 29.200 C 244.000 28.566,243.820 27.936,243.600 27.800 C 243.380 27.664,243.200 26.933,243.200 26.176 C 243.200 25.419,243.020 24.800,242.800 24.800 C 242.580 24.800,242.400 24.080,242.400 23.200 C 242.400 22.320,242.264 21.600,242.098 21.600 C 241.788 21.600,241.086 20.132,240.599 18.470 C 240.449 17.958,240.234 17.632,240.121 17.745 C 239.878 17.988,238.000 16.037,238.000 15.542 C 238.000 15.354,237.520 15.200,236.933 15.200 C 236.347 15.200,235.993 15.074,236.148 14.919 C 236.543 14.523,233.305 13.613,231.476 13.606 C 230.375 13.602,230.031 13.462,230.235 13.100 C 230.461 12.700,230.410 12.700,229.979 13.100 C 229.682 13.375,229.161 13.597,228.820 13.594 C 228.349 13.589,228.323 13.510,228.711 13.263 C 229.025 13.064,228.677 12.951,227.812 12.970 C 227.037 12.986,226.402 13.157,226.401 13.349 C 226.401 13.541,226.175 13.525,225.900 13.314 C 225.590 13.076,209.906 12.899,184.620 12.848 C 153.493 12.784,143.698 12.651,143.243 12.282 C 142.770 11.900,142.710 11.906,142.956 12.315 C 143.189 12.702,142.911 12.806,141.833 12.733 C 141.045 12.680,140.400 12.493,140.400 12.318 C 140.400 12.143,139.770 12.000,139.000 12.000 C 138.230 12.000,137.600 12.153,137.600 12.340 C 137.600 12.527,136.745 12.555,135.700 12.402 C 131.972 11.855,102.851 11.979,102.324 12.544 M159.600 22.413 C 220.116 22.846,230.619 23.054,231.883 23.844 C 232.810 24.424,232.990 24.931,234.567 31.400 C 235.532 35.360,236.486 38.560,237.220 40.300 C 237.902 41.916,238.501 43.385,238.811 44.200 C 239.862 46.969,244.127 55.118,245.647 57.262 C 246.061 57.846,246.400 58.427,246.400 58.553 C 246.400 58.942,250.440 64.418,253.370 68.000 C 256.770 72.157,263.574 78.916,267.380 81.918 C 270.627 84.479,274.573 88.368,275.987 90.400 C 276.523 91.170,277.085 91.890,277.236 92.000 C 277.386 92.110,277.845 92.781,278.255 93.491 C 278.665 94.202,279.821 96.092,280.824 97.691 C 283.630 102.166,285.347 105.121,287.046 108.400 C 287.901 110.050,288.698 111.490,288.817 111.600 C 289.064 111.828,294.605 123.075,296.109 126.400 C 296.656 127.610,297.596 129.680,298.197 131.000 C 298.799 132.320,300.099 135.380,301.086 137.800 C 302.073 140.220,303.150 142.830,303.481 143.600 C 304.431 145.814,305.297 147.935,306.054 149.900 C 306.244 150.395,306.604 151.295,306.854 151.900 C 307.103 152.505,307.440 153.360,307.603 153.800 C 307.766 154.240,308.304 155.500,308.800 156.600 C 309.296 157.700,309.859 159.005,310.051 159.500 C 310.692 161.153,311.113 162.188,311.759 163.700 C 312.433 165.276,312.470 165.361,315.396 171.944 C 317.627 176.965,322.022 185.930,323.463 188.400 C 324.041 189.390,324.823 190.740,325.201 191.400 C 325.916 192.648,326.919 194.315,330.334 199.929 C 337.001 210.892,333.683 225.342,323.800 228.385 C 316.822 230.534,310.939 229.740,305.000 225.849 C 300.529 222.919,288.800 209.265,288.800 206.990 C 288.800 206.855,288.260 205.959,287.600 205.000 C 286.940 204.041,286.400 203.168,286.400 203.061 C 286.400 202.954,285.608 201.527,284.640 199.889 C 281.871 195.205,276.400 184.372,276.400 183.572 C 276.400 183.173,276.220 182.736,276.000 182.600 C 275.780 182.464,275.600 182.001,275.600 181.571 C 275.600 181.141,275.420 180.432,275.200 179.995 C 274.980 179.558,274.620 178.842,274.400 178.405 C 274.180 177.968,274.000 177.355,274.000 177.043 C 274.000 176.731,273.614 175.694,273.143 174.738 C 272.672 173.782,272.150 172.640,271.984 172.200 C 271.818 171.760,271.408 170.770,271.074 170.000 C 270.740 169.230,269.360 165.810,268.007 162.400 C 264.374 153.245,264.440 153.370,262.786 152.440 C 260.953 151.410,259.179 151.365,258.001 152.319 C 256.429 153.592,256.120 171.699,255.767 283.200 C 255.506 365.619,255.633 361.493,253.160 367.434 C 247.270 381.582,227.511 381.213,219.104 366.798 C 215.647 360.869,215.429 359.028,215.729 338.301 C 215.969 321.703,215.751 301.817,214.823 255.707 C 214.279 228.699,214.237 228.400,210.958 228.400 C 208.122 228.400,208.018 228.962,207.178 248.800 C 205.532 287.706,205.655 285.888,204.641 286.128 C 204.179 286.237,202.720 286.595,201.400 286.925 C 189.387 289.924,181.419 287.710,172.490 278.890 C 169.574 276.010,167.367 274.202,165.774 273.389 L 163.400 272.178 163.116 268.989 C 162.831 265.786,162.254 256.735,161.600 245.200 C 160.625 227.994,160.668 228.172,157.547 228.471 C 155.553 228.663,155.177 229.854,154.742 237.341 C 154.535 240.894,154.205 246.410,154.007 249.600 C 153.810 252.790,153.453 258.726,153.214 262.790 C 152.736 270.908,152.776 270.794,150.320 271.218 C 149.374 271.382,147.556 271.805,146.280 272.158 C 143.726 272.865,140.357 272.992,138.560 272.450 C 137.922 272.257,136.410 271.870,135.200 271.589 C 133.990 271.308,132.730 270.949,132.400 270.791 C 126.818 268.126,123.853 265.961,120.803 262.321 C 118.220 259.239,113.279 254.479,112.360 254.187 C 111.424 253.890,110.909 252.311,110.603 248.800 C 110.460 247.150,110.185 244.360,109.993 242.600 C 109.801 240.840,109.535 238.230,109.402 236.800 C 109.014 232.628,108.806 231.663,108.156 231.013 C 107.417 230.274,104.800 230.204,103.921 230.900 C 103.199 231.472,103.052 232.422,101.658 245.486 C 101.197 249.811,101.111 250.000,99.602 250.000 C 98.970 250.000,97.945 250.193,97.326 250.429 C 88.799 253.680,74.923 246.702,70.859 237.119 C 67.201 228.494,64.609 151.521,67.346 132.800 C 68.609 124.161,70.074 116.348,71.622 110.000 C 73.084 104.005,73.512 102.320,74.011 100.600 C 74.266 99.720,74.568 98.413,74.681 97.696 C 74.795 96.979,75.049 96.294,75.244 96.173 C 75.440 96.052,75.600 95.511,75.600 94.971 C 75.600 94.431,75.762 93.677,75.961 93.295 C 76.160 92.913,76.540 91.790,76.807 90.800 C 77.073 89.810,77.429 88.640,77.598 88.200 C 77.767 87.760,78.305 86.050,78.793 84.400 C 79.282 82.750,79.844 81.087,80.041 80.705 C 80.238 80.323,80.400 79.736,80.400 79.400 C 80.400 79.064,80.574 78.477,80.788 78.095 C 81.001 77.713,82.066 74.790,83.155 71.600 C 85.536 64.628,86.692 61.405,87.388 59.800 C 87.675 59.140,88.317 57.520,88.817 56.200 C 89.316 54.880,89.877 53.629,90.062 53.420 C 90.248 53.211,90.400 52.797,90.400 52.501 C 90.400 52.204,90.760 51.216,91.200 50.306 C 91.640 49.395,92.000 48.502,92.000 48.321 C 92.000 48.139,92.378 47.138,92.840 46.096 C 93.302 45.053,93.819 43.840,93.989 43.400 C 94.159 42.960,94.663 41.790,95.109 40.800 C 95.554 39.810,96.269 38.190,96.698 37.200 C 103.047 22.532,103.809 21.351,106.600 21.834 C 107.260 21.948,131.110 22.209,159.600 22.413 M265.487 332.695 C 265.395 333.303,265.317 332.900,265.314 331.800 C 265.311 330.700,265.387 330.203,265.482 330.695 C 265.577 331.186,265.579 332.086,265.487 332.695 " stroke="none" fill="#eca404" fill-rule="evenodd"></path><path id="path2" d="M126.100 12.276 C 126.485 12.376,127.115 12.376,127.500 12.276 C 127.885 12.175,127.570 12.093,126.800 12.093 C 126.030 12.093,125.715 12.175,126.100 12.276 M135.105 12.283 C 135.602 12.379,136.322 12.375,136.705 12.275 C 137.087 12.175,136.680 12.096,135.800 12.101 C 134.920 12.105,134.607 12.187,135.105 12.283 M209.300 13.076 C 209.685 13.176,210.315 13.176,210.700 13.076 C 211.085 12.975,210.770 12.893,210.000 12.893 C 209.230 12.893,208.915 12.975,209.300 13.076 M214.900 13.076 C 215.285 13.176,215.915 13.176,216.300 13.076 C 216.685 12.975,216.370 12.893,215.600 12.893 C 214.830 12.893,214.515 12.975,214.900 13.076 M67.293 201.200 C 67.293 201.970,67.375 202.285,67.476 201.900 C 67.576 201.515,67.576 200.885,67.476 200.500 C 67.375 200.115,67.293 200.430,67.293 201.200 M255.299 248.300 L 255.200 274.000 235.600 274.000 L 216.000 274.000 215.960 266.300 C 215.939 262.065,215.778 257.610,215.604 256.400 C 215.237 253.847,215.472 280.208,215.894 288.800 C 216.050 291.990,216.183 309.270,216.189 327.200 C 216.201 362.694,216.043 359.882,218.305 364.800 C 224.983 379.314,245.357 382.176,251.995 369.532 C 255.578 362.706,255.644 361.072,255.503 282.000 C 255.445 249.330,255.353 234.165,255.299 248.300 M314.700 229.089 C 315.415 229.178,316.585 229.178,317.300 229.089 C 318.015 229.001,317.430 228.928,316.000 228.928 C 314.570 228.928,313.985 229.001,314.700 229.089 M104.538 229.906 C 104.284 230.068,104.942 230.200,106.000 230.200 C 107.058 230.200,107.716 230.068,107.462 229.906 C 107.208 229.744,106.550 229.612,106.000 229.612 C 105.450 229.612,104.792 229.744,104.538 229.906 M154.528 233.200 C 154.528 234.630,154.601 235.215,154.689 234.500 C 154.778 233.785,154.778 232.615,154.689 231.900 C 154.601 231.185,154.528 231.770,154.528 233.200 M207.293 234.000 C 207.293 234.770,207.375 235.085,207.476 234.700 C 207.576 234.315,207.576 233.685,207.476 233.300 C 207.375 232.915,207.293 233.230,207.293 234.000 M102.101 236.200 C 102.105 237.080,102.187 237.393,102.283 236.895 C 102.379 236.398,102.375 235.678,102.275 235.295 C 102.175 234.913,102.096 235.320,102.101 236.200 M161.737 239.800 C 161.739 241.560,161.809 242.230,161.893 241.289 C 161.978 240.349,161.977 238.909,161.891 238.089 C 161.805 237.270,161.736 238.040,161.737 239.800 M206.946 241.000 C 206.947 243.200,207.014 244.049,207.095 242.887 C 207.176 241.724,207.176 239.924,207.093 238.887 C 207.011 237.849,206.945 238.800,206.946 241.000 M110.109 239.200 C 110.109 240.190,110.187 240.595,110.282 240.100 C 110.378 239.605,110.378 238.795,110.282 238.300 C 110.187 237.805,110.109 238.210,110.109 239.200 M154.101 239.000 C 154.105 239.880,154.187 240.193,154.283 239.695 C 154.379 239.198,154.375 238.478,154.275 238.095 C 154.175 237.713,154.096 238.120,154.101 239.000 M214.960 245.400 C 214.961 248.700,215.022 249.997,215.098 248.282 C 215.173 246.567,215.172 243.867,215.097 242.282 C 215.021 240.697,214.959 242.100,214.960 245.400 M75.800 243.600 C 77.106 244.920,78.265 246.000,78.375 246.000 C 78.485 246.000,77.506 244.920,76.200 243.600 C 74.894 242.280,73.735 241.200,73.625 241.200 C 73.515 241.200,74.494 242.280,75.800 243.600 M101.309 242.800 C 101.309 243.790,101.387 244.195,101.482 243.700 C 101.578 243.205,101.578 242.395,101.482 241.900 C 101.387 241.405,101.309 241.810,101.309 242.800 M153.744 244.800 C 153.744 246.890,153.812 247.745,153.894 246.700 C 153.976 245.655,153.976 243.945,153.894 242.900 C 153.812 241.855,153.744 242.710,153.744 244.800 M110.682 245.200 C 110.804 246.850,110.971 248.275,111.052 248.367 C 111.328 248.677,111.107 244.608,110.783 243.400 C 110.586 242.668,110.547 243.369,110.682 245.200 M162.292 250.000 C 162.408 253.190,162.570 255.875,162.652 255.967 C 162.926 256.275,162.724 248.623,162.400 246.400 C 162.200 245.028,162.159 246.383,162.292 250.000 M100.893 246.000 C 100.893 246.770,100.975 247.085,101.076 246.700 C 101.176 246.315,101.176 245.685,101.076 245.300 C 100.975 244.915,100.893 245.230,100.893 246.000 M100.446 248.282 C 100.410 248.979,100.086 249.215,98.900 249.406 C 98.075 249.539,96.520 249.841,95.444 250.077 C 94.368 250.313,92.208 250.412,90.644 250.297 C 88.342 250.128,88.067 250.163,89.200 250.482 C 90.493 250.847,91.653 250.804,98.127 250.156 C 100.502 249.918,101.035 249.494,100.680 248.123 C 100.529 247.539,100.484 247.570,100.446 248.282 M84.200 249.200 C 85.080 249.607,86.250 249.933,86.800 249.924 C 87.583 249.911,87.626 249.869,87.000 249.730 C 86.560 249.632,85.521 249.293,84.692 248.976 C 82.584 248.171,82.278 248.310,84.200 249.200 M153.174 249.500 C 153.160 249.885,152.968 252.810,152.747 256.000 C 152.527 259.190,152.252 263.645,152.137 265.900 L 151.927 270.000 150.787 270.000 C 150.160 270.000,149.536 270.180,149.400 270.400 C 149.264 270.620,148.544 270.800,147.800 270.800 C 147.056 270.800,146.336 270.980,146.200 271.200 C 146.061 271.425,144.137 271.600,141.800 271.600 C 139.463 271.600,137.539 271.425,137.400 271.200 C 137.264 270.980,136.621 270.800,135.971 270.800 C 135.321 270.800,134.477 270.639,134.095 270.442 C 133.713 270.245,132.140 269.481,130.600 268.745 C 129.060 268.008,127.451 267.089,127.025 266.703 C 126.598 266.316,126.047 266.000,125.800 266.000 C 125.368 266.000,119.715 260.107,119.111 259.026 C 118.949 258.737,117.309 257.221,115.466 255.656 C 112.673 253.284,112.043 252.529,111.673 251.106 L 111.230 249.400 111.388 251.200 C 111.518 252.685,111.778 253.171,112.873 253.975 C 114.539 255.199,119.696 260.388,121.757 262.913 C 127.948 270.501,138.347 273.711,148.648 271.215 L 152.262 270.340 152.722 263.870 C 153.515 252.717,153.704 248.800,153.448 248.800 C 153.312 248.800,153.188 249.115,153.174 249.500 M206.260 250.890 C 206.121 252.051,206.033 255.250,206.064 258.000 L 206.122 263.000 206.440 256.012 C 206.766 248.845,206.707 247.170,206.260 250.890 M163.038 262.000 C 163.140 265.190,163.321 268.741,163.439 269.891 L 163.655 271.983 166.128 273.283 C 167.716 274.119,169.919 275.900,172.291 278.267 C 181.147 287.102,190.564 289.704,202.200 286.529 L 205.000 285.765 205.241 283.782 C 205.765 279.475,206.067 265.511,205.630 265.782 C 205.370 265.942,205.200 267.620,205.200 270.024 L 205.200 274.000 198.500 273.960 C 180.717 273.854,167.065 273.396,166.900 272.900 C 166.808 272.625,166.465 272.400,166.138 272.400 C 164.437 272.400,163.614 269.519,163.553 263.354 C 163.527 260.739,163.358 258.060,163.179 257.400 C 162.990 256.707,162.930 258.651,163.038 262.000 M265.731 309.000 C 265.733 310.540,265.805 311.121,265.892 310.291 C 265.979 309.461,265.977 308.201,265.889 307.491 C 265.800 306.781,265.729 307.460,265.731 309.000 M265.714 323.800 C 265.717 324.900,265.795 325.303,265.887 324.695 C 265.979 324.086,265.977 323.186,265.882 322.695 C 265.787 322.203,265.711 322.700,265.714 323.800 M265.309 331.600 C 265.309 332.590,265.387 332.995,265.482 332.500 C 265.578 332.005,265.578 331.195,265.482 330.700 C 265.387 330.205,265.309 330.610,265.309 331.600 M265.714 341.400 C 265.717 342.500,265.795 342.903,265.887 342.295 C 265.979 341.686,265.977 340.786,265.882 340.295 C 265.787 339.803,265.711 340.300,265.714 341.400 M265.293 345.200 C 265.293 345.970,265.375 346.285,265.476 345.900 C 265.576 345.515,265.576 344.885,265.476 344.500 C 265.375 344.115,265.293 344.430,265.293 345.200 " stroke="none" fill="#fbb707" fill-rule="evenodd"></path><path id="path3" d="M110.124 22.699 C 113.162 22.767,118.022 22.767,120.924 22.699 C 123.826 22.631,121.340 22.575,115.400 22.575 C 109.460 22.575,107.086 22.631,110.124 22.699 M168.000 23.208 C 179.206 23.512,217.450 23.703,217.167 23.453 C 217.075 23.372,203.590 23.219,187.200 23.113 C 170.810 23.007,162.170 23.050,168.000 23.208 M232.868 27.600 C 232.888 28.639,233.518 30.346,233.532 29.400 C 233.538 28.960,233.389 28.240,233.200 27.800 C 232.989 27.310,232.861 27.232,232.868 27.600 M99.823 31.006 C 98.960 33.072,99.074 33.306,100.047 31.462 C 100.493 30.616,100.765 29.832,100.652 29.719 C 100.539 29.606,100.166 30.185,99.823 31.006 M233.668 30.800 C 233.688 31.839,234.318 33.546,234.332 32.600 C 234.338 32.160,234.189 31.440,234.000 31.000 C 233.789 30.510,233.661 30.432,233.668 30.800 M98.200 34.661 C 97.864 35.465,97.682 36.215,97.795 36.328 C 97.908 36.441,98.000 36.435,98.000 36.316 C 98.000 36.196,98.272 35.446,98.605 34.649 C 98.938 33.852,99.121 33.200,99.011 33.200 C 98.901 33.200,98.536 33.858,98.200 34.661 M234.644 34.600 C 234.973 36.071,235.202 36.390,235.194 35.367 C 235.191 34.945,235.005 34.330,234.782 34.000 C 234.485 33.562,234.448 33.724,234.644 34.600 M96.790 37.800 C 96.576 38.350,96.209 39.295,95.975 39.900 C 95.741 40.505,95.714 40.820,95.915 40.600 C 96.386 40.083,97.658 36.800,97.387 36.800 C 97.273 36.800,97.005 37.250,96.790 37.800 M237.326 42.400 C 237.802 43.933,238.957 46.640,239.289 47.000 C 239.716 47.464,238.142 43.332,237.542 42.415 C 237.201 41.894,237.168 41.892,237.326 42.400 M94.400 43.284 C 94.400 43.404,94.128 44.154,93.795 44.951 C 93.462 45.748,93.279 46.400,93.389 46.400 C 93.706 46.400,94.833 43.500,94.605 43.272 C 94.492 43.159,94.400 43.165,94.400 43.284 M249.642 64.598 C 250.352 65.587,251.290 66.712,251.726 67.098 C 252.163 67.484,251.670 66.675,250.631 65.300 C 248.470 62.439,247.697 61.891,249.642 64.598 M254.280 70.200 C 256.605 73.044,263.999 80.125,268.000 83.338 C 271.907 86.477,270.219 84.814,265.019 80.403 C 263.076 78.755,259.497 75.335,257.066 72.803 C 254.635 70.271,253.381 69.100,254.280 70.200 M78.840 85.440 C 78.610 86.273,78.494 87.027,78.582 87.115 C 78.670 87.203,78.930 86.593,79.160 85.760 C 79.390 84.927,79.506 84.173,79.418 84.085 C 79.330 83.997,79.070 84.607,78.840 85.440 M274.740 89.916 C 275.233 90.609,275.844 91.304,276.097 91.460 C 276.350 91.617,276.154 91.177,275.660 90.484 C 275.167 89.791,274.556 89.096,274.303 88.940 C 274.050 88.783,274.246 89.223,274.740 89.916 M77.246 90.467 C 77.221 90.834,77.096 91.464,76.970 91.867 C 76.752 92.562,76.763 92.563,77.197 91.887 C 77.448 91.496,77.573 90.866,77.473 90.487 C 77.311 89.868,77.288 89.866,77.246 90.467 M76.229 93.829 C 76.081 94.415,76.051 94.984,76.161 95.094 C 76.271 95.204,76.481 94.815,76.629 94.229 C 76.776 93.642,76.806 93.073,76.696 92.963 C 76.586 92.853,76.376 93.242,76.229 93.829 M75.646 95.867 C 75.621 96.124,75.484 96.664,75.341 97.067 C 75.140 97.636,75.194 97.697,75.579 97.342 C 75.852 97.091,75.989 96.551,75.884 96.142 C 75.779 95.734,75.672 95.610,75.646 95.867 M279.609 97.100 C 279.614 97.265,279.985 97.850,280.433 98.400 L 281.248 99.400 280.614 98.100 C 280.011 96.865,279.589 96.445,279.609 97.100 M74.846 98.867 C 74.821 99.234,74.696 99.864,74.570 100.267 C 74.352 100.962,74.363 100.963,74.797 100.287 C 75.048 99.896,75.173 99.266,75.073 98.887 C 74.911 98.268,74.888 98.266,74.846 98.867 M282.586 101.900 C 282.935 102.615,283.306 103.200,283.410 103.200 C 283.808 103.200,283.552 102.563,282.767 101.600 L 281.952 100.600 282.586 101.900 M284.186 104.700 C 284.535 105.415,284.906 106.000,285.010 106.000 C 285.408 106.000,285.152 105.363,284.367 104.400 L 283.552 103.400 284.186 104.700 M71.646 111.667 C 71.621 112.034,71.496 112.664,71.370 113.067 C 71.152 113.762,71.163 113.763,71.597 113.087 C 71.848 112.696,71.973 112.066,71.873 111.687 C 71.711 111.068,71.688 111.066,71.646 111.667 M70.650 116.050 C 70.317 117.717,70.640 118.040,71.000 116.400 C 71.152 115.709,71.193 115.059,71.091 114.958 C 70.989 114.856,70.791 115.347,70.650 116.050 M69.850 120.050 C 69.517 121.717,69.840 122.040,70.200 120.400 C 70.352 119.709,70.393 119.059,70.291 118.958 C 70.189 118.856,69.991 119.347,69.850 120.050 M68.978 124.578 C 68.827 125.381,68.794 126.127,68.904 126.237 C 69.014 126.347,69.227 125.781,69.378 124.978 C 69.528 124.175,69.562 123.428,69.452 123.318 C 69.342 123.208,69.128 123.775,68.978 124.578 M68.182 129.782 C 68.029 130.802,67.994 131.727,68.104 131.837 C 68.214 131.947,68.429 131.202,68.582 130.182 C 68.735 129.161,68.770 128.237,68.660 128.127 C 68.550 128.017,68.335 128.761,68.182 129.782 M67.486 135.400 C 67.333 136.280,67.229 137.630,67.253 138.400 C 67.285 139.401,67.399 139.117,67.653 137.400 C 68.056 134.679,67.911 132.946,67.486 135.400 M302.330 142.600 C 302.762 143.700,303.612 145.860,304.218 147.400 C 304.824 148.940,305.485 150.380,305.688 150.600 C 305.891 150.820,305.703 150.100,305.270 149.000 C 304.838 147.900,303.988 145.740,303.382 144.200 C 302.776 142.660,302.115 141.220,301.912 141.000 C 301.709 140.780,301.897 141.500,302.330 142.600 M67.014 169.432 C 67.217 206.314,68.509 228.372,70.878 235.400 C 73.874 244.291,84.496 251.254,93.537 250.254 C 96.308 249.948,100.043 249.290,100.263 249.070 C 100.439 248.895,101.344 242.389,101.999 236.600 C 102.601 231.278,102.733 230.855,104.013 230.193 C 107.197 228.547,109.345 230.118,109.761 234.400 C 109.879 235.610,110.160 238.130,110.385 240.000 C 110.611 241.870,110.974 245.020,111.192 247.000 C 111.810 252.601,111.769 252.517,115.454 255.646 C 117.303 257.216,118.949 258.737,119.111 259.026 C 119.715 260.107,125.368 266.000,125.800 266.000 C 126.047 266.000,126.598 266.316,127.025 266.703 C 127.451 267.089,129.060 268.008,130.600 268.745 C 132.140 269.481,133.713 270.245,134.095 270.442 C 134.477 270.639,135.321 270.800,135.971 270.800 C 136.621 270.800,137.264 270.980,137.400 271.200 C 137.539 271.425,139.463 271.600,141.800 271.600 C 144.137 271.600,146.061 271.425,146.200 271.200 C 146.336 270.980,147.056 270.800,147.800 270.800 C 148.544 270.800,149.264 270.620,149.400 270.400 C 149.536 270.180,150.160 270.000,150.787 270.000 L 151.927 270.000 152.137 265.900 C 152.252 263.645,152.533 259.280,152.762 256.200 C 153.639 244.395,153.977 239.672,154.205 236.000 C 154.641 228.994,155.097 228.000,157.877 228.000 C 160.979 228.000,161.247 228.812,162.038 240.600 C 162.259 243.900,162.622 249.120,162.844 252.200 C 163.067 255.280,163.394 260.410,163.571 263.600 C 163.970 270.770,164.445 272.400,166.138 272.400 C 166.465 272.400,166.808 272.625,166.900 272.900 C 167.065 273.396,180.717 273.854,198.500 273.960 L 205.200 274.000 205.200 270.080 C 205.200 267.924,205.367 265.989,205.571 265.780 C 205.775 265.571,206.031 262.070,206.139 258.000 C 206.676 237.805,207.299 230.554,208.630 229.004 C 210.504 226.824,214.099 228.005,214.595 230.964 C 214.850 232.485,215.673 254.882,215.880 265.900 L 216.031 274.000 235.616 274.000 L 255.200 274.000 255.201 258.300 C 255.203 234.276,255.602 180.440,255.794 178.287 C 255.898 177.129,255.814 176.468,255.583 176.611 C 255.353 176.752,255.200 181.487,255.200 188.424 L 255.200 200.000 171.424 200.000 C 116.004 200.000,87.564 199.865,87.400 199.600 C 87.247 199.352,83.617 199.200,77.840 199.200 L 68.528 199.200 68.058 197.100 C 67.747 195.712,67.466 186.115,67.227 168.800 L 66.866 142.600 67.014 169.432 M258.238 151.411 C 256.009 152.573,256.019 152.512,256.100 164.200 L 256.175 175.000 256.387 164.141 C 256.625 152.003,256.613 152.051,259.533 151.273 C 260.340 151.058,260.640 150.865,260.200 150.844 C 259.760 150.822,258.877 151.078,258.238 151.411 M263.655 152.357 C 264.293 152.867,265.228 154.508,266.017 156.501 C 266.735 158.315,267.488 159.980,267.690 160.200 C 268.151 160.702,266.656 156.796,265.480 154.427 C 264.996 153.451,264.150 152.396,263.600 152.083 C 262.629 151.529,262.630 151.537,263.655 152.357 M311.600 165.351 C 311.600 165.818,312.877 168.457,313.029 168.305 C 313.238 168.095,312.088 165.200,311.795 165.200 C 311.688 165.200,311.600 165.268,311.600 165.351 M314.000 170.950 C 314.000 171.711,321.617 187.337,322.083 187.533 C 322.257 187.607,322.400 187.997,322.400 188.400 C 322.400 188.803,322.535 189.193,322.700 189.267 C 323.076 189.434,324.375 191.564,324.671 192.500 C 324.793 192.885,325.055 193.200,325.252 193.200 C 325.449 193.200,324.785 191.715,323.778 189.900 C 321.685 186.130,316.638 176.003,315.302 172.891 C 314.546 171.132,314.000 170.318,314.000 170.950 M274.412 176.800 C 274.412 177.130,274.587 177.670,274.800 178.000 C 275.145 178.533,275.188 178.533,275.188 178.000 C 275.188 177.670,275.013 177.130,274.800 176.800 C 274.455 176.267,274.412 176.267,274.412 176.800 M275.228 179.076 C 275.318 180.115,275.944 180.996,275.972 180.124 C 275.987 179.642,275.820 179.136,275.600 179.000 C 275.380 178.864,275.213 178.898,275.228 179.076 M276.006 181.500 C 276.024 182.377,276.788 182.959,276.794 182.100 C 276.797 181.605,276.620 181.200,276.400 181.200 C 276.180 181.200,276.003 181.335,276.006 181.500 M276.800 183.643 C 276.800 184.249,282.756 195.723,285.602 200.600 C 286.757 202.580,288.044 204.799,288.462 205.531 C 294.419 215.975,303.627 225.692,309.400 227.627 C 310.280 227.922,311.171 228.307,311.380 228.482 C 311.902 228.919,320.544 228.885,321.681 228.442 C 322.187 228.245,323.410 227.851,324.400 227.567 C 330.192 225.906,332.941 220.950,332.924 212.200 C 332.912 205.820,332.411 203.930,329.587 199.600 C 328.797 198.390,327.636 196.504,327.006 195.410 C 326.376 194.315,325.795 193.615,325.715 193.854 C 325.635 194.094,326.289 195.529,327.169 197.045 L 328.767 199.800 307.684 199.904 C 283.616 200.023,286.057 200.253,284.786 197.746 C 284.244 196.676,283.665 195.740,283.500 195.667 C 283.335 195.593,283.200 195.278,283.200 194.967 C 283.200 194.655,283.020 194.400,282.800 194.400 C 282.580 194.400,282.400 194.040,282.400 193.600 C 282.400 193.160,282.265 192.799,282.100 192.797 C 281.935 192.795,281.608 192.390,281.373 191.897 C 281.138 191.404,280.193 189.590,279.273 187.866 C 278.353 186.142,277.600 184.488,277.600 184.190 C 277.600 183.891,277.420 183.536,277.200 183.400 C 276.980 183.264,276.800 183.373,276.800 183.643 M265.693 334.800 C 265.693 335.570,265.775 335.885,265.876 335.500 C 265.976 335.115,265.976 334.485,265.876 334.100 C 265.775 333.715,265.693 334.030,265.693 334.800 " stroke="none" fill="#fbbe14" fill-rule="evenodd"></path><path id="path4" d="M200.100 13.076 C 200.485 13.176,201.115 13.176,201.500 13.076 C 201.885 12.975,201.570 12.893,200.800 12.893 C 200.030 12.893,199.715 12.975,200.100 13.076 M104.239 22.324 C 103.108 23.004,98.052 32.985,98.574 33.508 C 98.686 33.620,98.975 33.191,99.217 32.555 C 99.458 31.920,100.166 30.320,100.790 29.000 C 101.414 27.680,102.197 25.939,102.529 25.131 C 103.751 22.160,99.660 22.353,152.232 22.792 C 207.159 23.251,217.013 23.280,216.713 22.980 C 216.592 22.859,192.037 22.597,162.146 22.399 C 132.256 22.201,107.260 21.946,106.600 21.833 C 105.848 21.703,104.967 21.887,104.239 22.324 M224.039 23.499 C 232.377 23.640,232.259 23.577,233.388 28.516 C 233.780 30.230,234.184 31.549,234.285 31.448 C 234.386 31.347,234.158 29.866,233.778 28.157 C 232.668 23.169,232.693 23.182,224.118 23.290 L 217.000 23.380 224.039 23.499 M234.434 32.600 C 234.422 33.040,234.587 33.670,234.800 34.000 C 235.314 34.795,235.314 33.796,234.800 32.600 L 234.456 31.800 234.434 32.600 M97.418 35.418 C 97.072 36.246,96.871 37.005,96.971 37.105 C 97.071 37.205,97.436 36.609,97.782 35.782 C 98.128 34.954,98.329 34.195,98.229 34.095 C 98.129 33.995,97.764 34.591,97.418 35.418 M235.234 35.400 C 235.222 35.840,235.387 36.470,235.600 36.800 C 236.114 37.595,236.114 36.596,235.600 35.400 L 235.256 34.600 235.234 35.400 M236.012 38.000 C 236.012 38.330,236.187 38.870,236.400 39.200 C 236.745 39.733,236.788 39.733,236.788 39.200 C 236.788 38.870,236.613 38.330,236.400 38.000 C 236.055 37.467,236.012 37.467,236.012 38.000 M95.001 41.068 C 94.633 41.910,94.168 42.913,93.966 43.295 C 93.765 43.677,93.613 44.217,93.630 44.495 C 93.646 44.773,94.189 43.849,94.837 42.441 C 95.485 41.034,95.937 39.804,95.842 39.709 C 95.746 39.613,95.368 40.225,95.001 41.068 M237.007 40.850 C 237.507 42.473,238.366 43.891,238.384 43.124 C 238.393 42.752,238.220 42.336,238.000 42.200 C 237.780 42.064,237.600 41.614,237.600 41.200 C 237.600 40.786,237.401 40.324,237.157 40.174 C 236.853 39.986,236.806 40.198,237.007 40.850 M92.623 46.606 C 91.722 48.764,91.911 49.328,92.837 47.242 C 93.266 46.275,93.534 45.400,93.432 45.298 C 93.330 45.197,92.966 45.785,92.623 46.606 M239.200 46.208 C 239.200 46.494,242.504 52.915,244.013 55.560 C 248.612 63.627,257.257 73.840,265.053 80.416 C 273.203 87.291,276.743 91.385,281.292 99.200 C 281.868 100.190,282.632 101.360,282.989 101.800 C 284.168 103.252,282.462 100.078,280.339 96.871 C 279.273 95.259,278.400 93.808,278.400 93.646 C 278.400 93.484,278.080 93.002,277.689 92.575 C 277.298 92.149,276.536 91.170,275.996 90.400 C 274.560 88.354,270.611 84.466,267.380 81.918 C 263.574 78.916,256.770 72.157,253.370 68.000 C 250.440 64.418,246.400 58.942,246.400 58.553 C 246.400 58.427,246.061 57.846,245.647 57.262 C 244.500 55.643,242.985 52.944,241.181 49.300 C 239.726 46.363,239.200 45.541,239.200 46.208 M91.023 50.606 C 90.115 52.780,90.276 53.311,91.216 51.240 C 91.655 50.273,91.932 49.398,91.831 49.297 C 91.730 49.196,91.366 49.785,91.023 50.606 M89.632 54.100 C 89.441 54.595,88.976 55.810,88.599 56.800 C 88.221 57.790,87.677 59.140,87.390 59.800 C 87.103 60.460,86.479 62.080,86.003 63.400 C 83.463 70.449,82.782 72.516,82.946 72.679 C 83.046 72.779,83.245 72.442,83.389 71.930 C 83.533 71.419,83.801 70.640,83.986 70.200 C 84.171 69.760,84.700 68.365,85.161 67.100 C 85.622 65.835,86.378 63.765,86.839 62.500 C 87.300 61.235,87.824 59.840,88.003 59.400 C 88.181 58.960,88.415 58.330,88.521 58.000 C 88.628 57.670,89.092 56.455,89.552 55.300 C 90.012 54.145,90.296 53.200,90.184 53.200 C 90.072 53.200,89.824 53.605,89.632 54.100 M82.200 74.000 C 82.050 74.473,82.017 74.950,82.127 75.060 C 82.237 75.170,82.450 74.873,82.600 74.400 C 82.750 73.927,82.783 73.450,82.673 73.340 C 82.563 73.230,82.350 73.527,82.200 74.000 M81.400 76.400 C 81.250 76.873,81.217 77.350,81.327 77.460 C 81.437 77.570,81.650 77.273,81.800 76.800 C 81.950 76.327,81.983 75.850,81.873 75.740 C 81.763 75.630,81.550 75.927,81.400 76.400 M80.692 78.242 C 80.531 78.402,80.405 78.908,80.412 79.367 C 80.423 80.136,80.456 80.145,80.840 79.485 C 81.288 78.716,81.173 77.760,80.692 78.242 M79.892 80.642 C 79.731 80.802,79.605 81.308,79.612 81.767 C 79.623 82.536,79.656 82.545,80.040 81.885 C 80.488 81.116,80.373 80.160,79.892 80.642 M79.000 83.600 C 78.850 84.073,78.817 84.550,78.927 84.660 C 79.037 84.770,79.250 84.473,79.400 84.000 C 79.550 83.527,79.583 83.050,79.473 82.940 C 79.363 82.830,79.150 83.127,79.000 83.600 M78.273 85.753 C 78.123 86.145,78.011 86.766,78.025 87.133 C 78.042 87.575,78.181 87.474,78.437 86.834 C 78.649 86.303,78.761 85.682,78.685 85.454 C 78.609 85.227,78.424 85.361,78.273 85.753 M77.467 88.267 C 77.320 88.413,77.211 88.908,77.225 89.367 C 77.249 90.133,77.282 90.123,77.634 89.242 C 78.026 88.263,77.944 87.789,77.467 88.267 M76.673 90.953 C 76.523 91.345,76.411 91.966,76.425 92.333 C 76.442 92.775,76.581 92.674,76.837 92.034 C 77.049 91.503,77.161 90.882,77.085 90.654 C 77.009 90.427,76.824 90.561,76.673 90.953 M75.867 93.467 C 75.720 93.613,75.615 94.198,75.634 94.767 C 75.668 95.781,75.675 95.779,76.021 94.620 C 76.385 93.403,76.331 93.002,75.867 93.467 M75.067 96.267 C 74.920 96.413,74.815 96.998,74.834 97.567 C 74.868 98.581,74.875 98.579,75.221 97.420 C 75.585 96.203,75.531 95.802,75.067 96.267 M74.223 99.670 C 72.298 106.817,70.747 113.431,69.644 119.200 C 69.413 120.410,69.045 122.300,68.827 123.400 C 68.609 124.500,68.245 126.750,68.019 128.400 C 67.793 130.050,67.399 132.660,67.142 134.200 C 66.558 137.711,66.245 179.393,66.710 191.600 C 66.949 197.863,67.033 191.777,67.019 169.200 C 67.005 145.631,67.125 137.385,67.522 134.800 C 67.809 132.930,68.224 130.140,68.444 128.600 C 69.267 122.848,71.320 112.877,73.255 105.241 C 74.113 101.853,74.738 99.005,74.644 98.911 C 74.550 98.817,74.360 99.158,74.223 99.670 M283.609 103.020 C 283.614 103.229,283.970 103.850,284.400 104.400 C 284.830 104.950,285.186 105.512,285.191 105.650 C 285.207 106.110,287.290 109.644,287.450 109.483 C 287.626 109.307,284.569 103.616,283.977 103.020 C 283.739 102.780,283.603 102.780,283.609 103.020 M291.020 116.840 C 292.464 119.722,294.196 123.277,294.869 124.740 C 296.722 128.769,298.030 131.668,298.597 133.000 C 298.877 133.660,299.488 135.053,299.953 136.096 C 300.419 137.138,300.800 138.061,300.800 138.147 C 300.800 138.623,302.077 141.257,302.232 141.101 C 302.404 140.930,300.133 135.284,298.009 130.600 C 297.510 129.500,296.570 127.430,295.920 126.000 C 293.263 120.157,288.980 111.627,288.697 111.614 C 288.531 111.606,289.576 113.958,291.020 116.840 M257.229 152.654 C 256.455 153.638,256.404 154.176,256.467 160.754 L 256.534 167.800 256.795 160.442 C 257.045 153.412,257.098 153.050,257.973 152.342 C 258.476 151.934,258.702 151.600,258.473 151.600 C 258.245 151.600,257.685 152.074,257.229 152.654 M262.885 152.479 C 263.759 152.986,264.542 153.833,264.787 154.535 C 265.016 155.192,265.306 155.627,265.431 155.502 C 266.147 154.787,263.254 151.585,261.914 151.609 C 261.631 151.614,262.068 152.006,262.885 152.479 M308.806 157.600 C 309.243 158.700,309.974 160.542,310.431 161.693 C 310.888 162.844,311.698 164.740,312.231 165.905 C 312.764 167.070,313.200 168.113,313.200 168.223 C 313.200 168.406,313.847 169.817,317.282 177.131 C 317.936 178.524,318.542 179.591,318.630 179.503 C 318.717 179.416,317.607 176.747,316.162 173.572 C 312.589 165.721,311.076 162.249,309.987 159.400 C 309.301 157.604,308.352 155.600,308.187 155.600 C 308.091 155.600,308.369 156.500,308.806 157.600 M265.627 156.094 C 265.602 156.368,269.711 166.859,271.074 170.000 C 271.408 170.770,271.818 171.760,271.984 172.200 C 272.150 172.640,272.672 173.782,273.143 174.738 C 273.614 175.694,274.000 176.808,274.000 177.214 C 274.000 177.620,274.180 178.064,274.400 178.200 C 274.620 178.336,274.800 178.786,274.800 179.200 C 274.800 179.614,274.968 180.057,275.174 180.184 C 275.407 180.328,275.407 179.958,275.174 179.208 C 274.968 178.543,274.645 177.505,274.456 176.900 C 274.267 176.295,273.736 174.975,273.277 173.968 C 272.818 172.960,272.058 171.160,271.590 169.968 C 271.121 168.775,270.463 167.170,270.128 166.400 C 269.793 165.630,269.357 164.595,269.159 164.100 C 268.962 163.605,268.638 162.795,268.440 162.300 C 267.963 161.108,266.664 158.051,266.103 156.800 C 265.856 156.250,265.642 155.933,265.627 156.094 M255.859 176.900 C 255.605 179.015,255.546 260.945,255.799 260.200 C 255.957 259.735,256.371 174.800,256.216 174.800 C 256.158 174.800,255.998 175.745,255.859 176.900 M275.621 181.476 C 275.609 181.958,275.780 182.464,276.000 182.600 C 276.220 182.736,276.400 183.150,276.400 183.521 C 276.400 184.305,280.011 191.722,280.268 191.466 C 280.363 191.370,279.632 189.607,278.644 187.546 C 277.655 185.486,276.575 183.080,276.244 182.200 C 275.826 181.091,275.635 180.869,275.621 181.476 M319.600 181.916 C 319.600 182.349,326.214 194.194,327.644 196.320 C 328.280 197.266,328.800 198.115,328.800 198.207 C 328.800 198.298,329.520 199.487,330.400 200.849 C 331.280 202.210,332.003 203.611,332.006 203.962 C 332.009 204.313,332.204 204.870,332.438 205.200 C 332.762 205.656,332.804 205.512,332.611 204.600 C 332.362 203.419,330.978 200.878,327.626 195.447 C 326.691 193.932,325.608 192.132,325.220 191.447 C 324.831 190.761,324.040 189.390,323.461 188.400 C 322.883 187.410,321.858 185.475,321.184 184.100 C 320.039 181.764,319.600 181.158,319.600 181.916 M281.204 193.600 C 282.846 196.913,284.890 200.443,285.066 200.268 C 285.161 200.172,284.844 199.398,284.361 198.547 C 283.877 197.696,282.944 196.010,282.287 194.800 C 280.795 192.052,280.001 191.173,281.204 193.600 M286.219 202.600 C 286.809 203.700,287.631 205.078,288.046 205.662 C 288.461 206.246,288.800 206.839,288.800 206.980 C 288.800 207.449,292.904 213.359,295.342 216.400 C 300.760 223.158,305.109 226.663,310.800 228.860 C 315.785 230.784,325.560 228.840,329.200 225.200 C 331.139 223.261,333.215 219.482,332.651 218.918 C 332.565 218.832,332.162 219.686,331.756 220.816 C 329.808 226.232,324.743 228.923,316.400 228.974 C 311.149 229.006,308.829 228.229,304.352 224.934 C 299.081 221.054,291.262 211.283,287.282 203.600 C 286.997 203.050,286.400 202.150,285.955 201.600 C 285.377 200.885,285.452 201.171,286.219 202.600 M67.307 205.600 C 67.295 207.470,67.417 210.620,67.579 212.600 L 67.873 216.200 67.884 212.200 C 67.890 210.000,67.768 206.850,67.612 205.200 L 67.329 202.200 67.307 205.600 M332.999 211.940 C 333.000 215.298,333.117 217.630,333.260 217.122 C 333.592 215.946,333.586 208.576,333.252 207.018 C 333.112 206.367,332.999 208.582,332.999 211.940 M68.100 218.800 C 68.093 220.010,68.221 222.080,68.385 223.400 L 68.682 225.800 68.702 223.400 C 68.712 222.080,68.584 220.010,68.417 218.800 L 68.113 216.600 68.100 218.800 M68.877 227.200 C 68.867 227.750,69.003 229.010,69.180 230.000 L 69.500 231.800 69.503 230.200 C 69.504 229.320,69.368 228.060,69.200 227.400 C 68.923 226.313,68.893 226.294,68.877 227.200 M155.629 229.054 C 155.107 229.718,154.816 230.643,154.844 231.554 L 154.888 233.000 155.230 231.257 C 155.817 228.271,157.874 227.391,159.874 229.270 C 160.383 229.748,160.800 229.938,160.800 229.692 C 160.800 227.944,156.883 227.460,155.629 229.054 M209.123 228.700 C 208.792 229.085,208.391 229.670,208.231 230.000 C 208.071 230.330,208.329 230.105,208.804 229.500 C 209.885 228.121,211.745 228.021,213.074 229.270 C 213.583 229.748,214.000 230.025,214.000 229.885 C 214.000 228.359,210.207 227.437,209.123 228.700 M105.300 230.276 C 105.685 230.376,106.315 230.376,106.700 230.276 C 107.085 230.175,106.770 230.093,106.000 230.093 C 105.230 230.093,104.915 230.175,105.300 230.276 M103.288 230.900 C 103.062 231.175,102.774 232.480,102.649 233.800 C 102.496 235.407,102.536 235.870,102.770 235.200 C 102.963 234.650,103.138 233.534,103.160 232.720 C 103.186 231.763,103.448 231.096,103.900 230.832 C 104.285 230.608,104.397 230.419,104.149 230.412 C 103.901 230.405,103.513 230.625,103.288 230.900 M107.880 230.717 C 108.144 230.885,108.538 231.468,108.755 232.011 C 109.103 232.884,109.152 232.904,109.175 232.180 C 109.202 231.303,108.509 230.396,107.820 230.406 C 107.577 230.410,107.603 230.541,107.880 230.717 M160.896 233.200 C 160.882 234.850,161.010 237.100,161.182 238.200 L 161.493 240.200 161.500 237.800 C 161.503 236.480,161.375 234.230,161.214 232.800 L 160.922 230.200 160.896 233.200 M214.295 237.000 C 214.413 240.740,214.574 243.875,214.654 243.967 C 214.961 244.318,214.727 231.759,214.413 231.000 C 214.230 230.560,214.178 233.260,214.295 237.000 M207.431 235.200 C 207.261 237.730,207.192 240.340,207.278 241.000 C 207.364 241.660,207.581 239.939,207.761 237.175 C 207.940 234.411,208.009 231.801,207.914 231.375 C 207.818 230.949,207.601 232.670,207.431 235.200 M69.850 233.581 C 70.523 238.420,75.198 244.853,80.007 247.556 C 82.243 248.812,81.993 248.336,79.617 246.811 C 75.487 244.161,70.465 237.378,70.372 234.325 C 70.356 233.816,70.177 233.040,69.973 232.600 C 69.715 232.043,69.678 232.341,69.850 233.581 M109.247 235.633 C 109.273 236.825,109.442 238.340,109.622 239.000 C 109.822 239.736,109.863 238.962,109.726 237.000 C 109.467 233.294,109.178 232.467,109.247 235.633 M154.246 240.126 C 154.066 242.725,154.009 244.942,154.120 245.053 C 154.395 245.328,154.913 238.094,154.725 236.600 C 154.642 235.940,154.427 237.527,154.246 240.126 M101.864 240.150 C 101.701 241.663,101.650 242.983,101.751 243.084 C 102.014 243.347,102.510 239.050,102.319 238.153 C 102.231 237.739,102.026 238.638,101.864 240.150 M110.023 242.633 C 110.036 243.715,110.203 245.320,110.395 246.200 C 110.644 247.343,110.680 246.828,110.521 244.400 C 110.272 240.612,109.988 239.603,110.023 242.633 M161.635 246.233 C 161.654 248.195,161.817 250.700,161.997 251.800 C 162.205 253.067,162.246 251.820,162.110 248.400 C 161.864 242.222,161.583 240.938,161.635 246.233 M100.990 247.067 C 100.766 248.644,100.711 249.855,100.868 249.758 C 101.250 249.522,101.707 246.370,101.535 245.163 C 101.459 244.633,101.214 245.490,100.990 247.067 M206.662 252.128 C 206.476 256.269,206.412 259.745,206.521 259.854 C 206.829 260.163,207.275 251.356,207.130 247.800 C 207.037 245.518,206.903 246.760,206.662 252.128 M83.200 249.200 C 83.970 249.622,84.870 249.961,85.200 249.954 C 85.530 249.946,85.080 249.607,84.200 249.200 C 82.094 248.225,81.419 248.225,83.200 249.200 M110.852 250.081 C 110.793 252.218,111.412 253.886,112.378 254.193 C 112.739 254.308,113.747 255.057,114.617 255.857 C 117.717 258.708,118.601 259.366,116.418 257.197 C 115.198 255.985,113.596 254.541,112.857 253.989 C 111.687 253.115,111.474 252.676,111.209 250.593 L 110.905 248.200 110.852 250.081 M153.457 252.731 C 153.277 255.223,153.217 257.351,153.326 257.459 C 153.606 257.739,154.101 251.285,153.929 249.600 C 153.851 248.830,153.638 250.239,153.457 252.731 M87.000 250.400 C 87.440 250.589,88.250 250.738,88.800 250.732 L 89.800 250.720 88.800 250.400 C 88.250 250.224,87.440 250.074,87.000 250.068 L 86.200 250.056 87.000 250.400 M95.800 250.400 L 95.000 250.744 95.800 250.744 C 96.240 250.744,96.960 250.589,97.400 250.400 L 98.200 250.056 97.400 250.056 C 96.960 250.056,96.240 250.211,95.800 250.400 M214.851 259.033 C 214.879 263.415,215.039 270.330,215.206 274.400 C 215.408 279.340,215.444 276.747,215.314 266.600 C 215.206 258.240,215.047 251.325,214.959 251.233 C 214.872 251.142,214.823 254.652,214.851 259.033 M162.497 259.400 C 162.482 261.380,162.610 263.900,162.782 265.000 L 163.093 267.000 163.107 264.800 C 163.114 263.590,162.986 261.070,162.822 259.200 L 162.524 255.800 162.497 259.400 M120.794 262.393 C 121.934 263.709,123.613 265.374,124.525 266.093 C 125.437 266.812,124.703 265.894,122.891 264.050 C 121.081 262.207,119.600 260.542,119.600 260.350 C 119.600 260.157,119.402 260.000,119.160 260.000 C 118.919 260.000,119.654 261.077,120.794 262.393 M152.602 265.570 L 152.315 270.341 150.858 270.729 C 149.648 271.051,149.574 271.124,150.424 271.159 C 152.444 271.240,152.748 270.584,153.044 265.500 C 153.194 262.915,153.221 260.800,153.103 260.800 C 152.985 260.800,152.759 262.947,152.602 265.570 M205.888 270.354 C 205.716 274.619,205.652 278.185,205.745 278.279 C 206.011 278.544,206.480 268.101,206.332 265.200 C 206.260 263.770,206.059 266.089,205.888 270.354 M163.254 270.820 C 163.200 271.849,163.825 272.800,164.556 272.800 C 164.775 272.800,164.661 272.575,164.305 272.300 C 163.948 272.025,163.578 271.350,163.483 270.800 L 163.309 269.800 163.254 270.820 M135.000 271.600 C 135.440 271.789,136.160 271.938,136.600 271.932 C 137.243 271.923,137.204 271.857,136.400 271.600 C 135.032 271.162,133.981 271.162,135.000 271.600 M147.000 271.600 L 146.200 271.944 147.000 271.966 C 147.440 271.978,148.070 271.813,148.400 271.600 C 149.195 271.086,148.196 271.086,147.000 271.600 M138.716 272.472 C 139.614 272.829,144.401 272.822,145.311 272.463 C 145.702 272.308,144.224 272.186,142.027 272.191 C 139.830 272.196,138.340 272.322,138.716 272.472 M172.445 278.815 C 176.875 283.188,182.139 286.809,184.047 286.796 C 184.351 286.794,183.160 286.084,181.400 285.219 C 177.956 283.525,174.619 280.932,171.991 277.908 C 171.086 276.868,169.773 275.614,169.073 275.123 C 168.373 274.632,169.890 276.294,172.445 278.815 M205.137 284.200 C 205.059 285.190,205.131 286.000,205.297 286.000 C 205.464 286.000,205.600 285.190,205.600 284.200 C 205.600 283.210,205.528 282.400,205.440 282.400 C 205.352 282.400,205.216 283.210,205.137 284.200 M185.400 287.200 C 185.840 287.389,186.560 287.538,187.000 287.532 C 187.643 287.523,187.604 287.457,186.800 287.200 C 185.432 286.762,184.381 286.762,185.400 287.200 M199.000 287.200 C 197.911 287.477,197.893 287.507,198.800 287.525 C 199.350 287.535,200.160 287.389,200.600 287.200 C 201.586 286.776,200.666 286.776,199.000 287.200 M190.565 288.065 C 191.783 288.298,193.303 288.299,194.565 288.068 C 196.429 287.726,196.265 287.695,192.600 287.692 C 188.983 287.690,188.788 287.725,190.565 288.065 M215.665 300.900 C 215.623 308.343,215.741 312.400,216.000 312.400 C 216.458 312.400,216.467 297.219,216.012 292.400 C 215.829 290.452,215.707 293.434,215.665 300.900 M215.706 345.600 C 215.679 352.090,215.779 357.710,215.928 358.088 C 216.180 358.725,216.138 342.320,215.873 336.400 C 215.809 334.970,215.734 339.110,215.706 345.600 M255.362 353.400 C 255.362 356.920,255.424 358.306,255.498 356.481 C 255.572 354.656,255.572 351.776,255.497 350.081 C 255.422 348.386,255.361 349.880,255.362 353.400 M221.600 370.525 C 221.600 370.594,222.185 371.179,222.900 371.825 L 224.200 373.000 223.025 371.700 C 221.930 370.488,221.600 370.216,221.600 370.525 M240.500 377.476 C 240.885 377.576,241.515 377.576,241.900 377.476 C 242.285 377.375,241.970 377.293,241.200 377.293 C 240.430 377.293,240.115 377.375,240.500 377.476 " stroke="none" fill="#f4b414" fill-rule="evenodd"></path></g></svg>